/* XPM */
static char *goth[] = {
/* columns rows colors chars-per-pixel */
"64 64 68 1 ",
"  c #030202",
". c #080605",
"X c #060805",
"o c #0A0907",
"O c #060608",
"+ c #090708",
"@ c #0C0C0B",
"# c #110E0D",
"$ c #11110E",
"% c #0D0E10",
"& c #110F10",
"* c #141313",
"= c #191614",
"- c #1B1916",
"; c #191718",
": c #1D1C1A",
"> c #211E1C",
", c #1E201E",
"< c #22211E",
"1 c #29211F",
"2 c #1E1E20",
"3 c #211F20",
"4 c #1F2120",
"5 c #252422",
"6 c #292624",
"7 c #272926",
"8 c #2A2926",
"9 c #272729",
"0 c #292728",
"q c #2D2B2A",
"w c #302728",
"e c #312E2C",
"r c #33312E",
"t c #38302E",
"y c #2F2E30",
"u c #312F30",
"i c #343333",
"p c #393634",
"a c #3A3936",
"s c #373538",
"d c #393739",
"f c #3C3B3A",
"g c #413E3D",
"h c #42403F",
"j c #3E3E41",
"k c #413F41",
"l c #444343",
"z c #494645",
"x c #4A4946",
"c c #464749",
"v c #494748",
"b c #4D4B4B",
"n c #514746",
"m c #524E4D",
"M c #52504F",
"N c #514F50",
"B c #545353",
"V c #595756",
"C c #5A5857",
"Z c #595758",
"A c #5C5B5B",
"S c #5F615E",
"D c #61605E",
"F c #615F60",
"G c #646362",
"H c #686667",
"J c #696768",
"K c #6B6B69",
/* pixels */
"*=*,e-6r5peii5i<-,--$=--<7,75u6tei7q7q55*:::$--,,4qe<fqei<a,54*,",
"*77-1>qpipipa5hq,,*=-q<:7q-58frhpprpupq57<**=7<:p@,fuphtqiiq-,-$",
"jppinggg0beegieqazzhgfrfgbhhfawgipgzqrpqhzxbhaahxxfaeiathqrhaxlb",
"5:5--.#g-o<:M@7--e<:,7,,*,@-ri*-=*7r-,<*6<:,<<-*-@$x@->*C@,$-7-,",
"q-,:1@&go-< M**$*5<<55=,-<@&ee$*-=aa=$=o76555<,<,$#n#--#B@-$-7,,",
" 7p*=:>= $ o,5<=XieX qap#<>>>* $$ -,,6,Xqp5 X7i$><=$  #$-74$Xir ",
"AzpzVptgX  $zqqbBzzDDxijnxgep>.  XzhqrhBhgBDGhfbmeago o hi7bxfhh",
"7hgee:>= *$o,5-$*--<,ajftr1=-$#$# 5-==*o=:<*7alrw1:= =.#4,,@=;=X",
" +O  OO                    OO                           X       ",
"bbgfq0-2   %-5955yyeiffsuq63;#   o5955959eisajjf503&   @779559q5",
"=-&&++ O++  + +   oo%**#&o X++O.   o  +X+   o%#%#%+O  O      XO ",
"     O                  OO     O                     O          ",
"3;:;q:55qiifsy94%*;%###% +#:;3;3*4-;5:*949eyiyq7&*&#%#&**-*-=*%O",
"3%&;e*;9;;%;4::*@%%oOo++O@O=&;**o%  %@ %%%**;;%%%##@@%#@O+%%%o  ",
"&@O@#  %%% ++X%O@@+XX@%.&*O&O*&*O +%**% +X  X%@O&&@@%*@ +o%%ooOX",
"sksdyjiiilcclfjfyeyysjkdsksgqfdkNcbbyfcfyq9yiffiisdsflcbcljfpyyy",
">>qq00ujyypjlify%,,#-,@-O#;:355q24:=i4:qqprfhqhe#:*O*4:*;4,4;5%+",
"ggfdpdjkpysfjiaq57p,,5>750qqiuui595,y54e<7euaer6qdu9eyq94999554*",
"*o     O    X X X @ @@      OO      +     @ XX                +O",
"i5#o%@&&*##$%+*%@Xiaxi1 ##@#&&%@***%%%*$X*hue8#X%%****%-*%%#*oss",
"g8oXO oo XXXX @X Xhzf<$  . .oo..OXXX XoX =BhjuX         o  X% fl",
"gq  + **$$***o=**$hhi:$ .###=*#**;**@==$@=mht7 X*@*-**=-*o=-*@hx",
"zeX@==81<<661-76-*gMxr@ #=->61>>595:-76:-,VMbto.**<5>:55<=q5-=hz",
"lqXo$=8<<<775:771-aca<XX#=->w6>>5e5<,r5<<:zhg8  *-7e<<767-r7-,fz",
"NuX@--77<<886:e7,<lbx7$X@--50>567e<<<uq<=ibxbp+O:-555<q75=r7<<lb",
"f5 @--77>>q86:e7<:pif4@X$-,5e6667q5<,uq<>7ipl5 %>-707<q75-p7<:aa",
"bpo@->8q77er7<i7::fplq$ $:,7r851euqq5pe<-5faNuO+::q771eeq,pq<,ae",
"jeX ->er<<886:e6<-a<i7* $:,7u8517e<<<q6<:7a:fe%+-:e75:7e<,q5<:a4",
"q7XX::76<>77<=76,-p-77$ @::5q76<67<<:q5<-0a=rq@.--975:57,-7<,:p<",
"ii*X-:<67<786-87:,g5qr@ @:-6q6<:67<<,qe7-<f6fu .-:875-55<<q6<:g<",
"qiX -<ee7><<<=775:u<,r@@@:<6q61<55<<:e56>5i>quO%::885,76<,75<=p,",
"ii%X<5768<786>re<,ie5aoX$<<qe6616q57<e77;0g3uk@X<:eee1775<qe7-a<",
"qh@X1>8e>1188<ee:-fy5f* $>18w11158161rq<-<x7rxX :5e81<1168e811ae",
"<i X<-11>>>>1-116-r9*9XX@--18>>>>6>>>661<=h>,i @-:>6>>1>><11>=e<",
"rhX-rrtptttttepre7lb9s%#<retpttpepttwappe>AhihX:etptttptrwptrqxb",
"ahX$$=-->->--$1---sAyf  $$$$>>>>->-=$>-->$AMij X$$-:-->--$>>--ab",
"fj $=-1e81te6>re<>pC7f@X=>-1t8e6et861te6<$CByfX@-18t18eew>ee61fB",
"7r $->ta11er1:te7>eb,r% $--8re1>tt861te1:=bh5fXo=-8t61er6-te1-ux",
"rpX@--881>et1>pe<>iV4q$X$->8te11et816ae1:,vbys+o-1wt61er8>tt15pb",
"ir X--t81-8e1>t8>=iC77$X$--<8<<18e6<<te>-<lNyu +--1e<>681-r6-:sb",
"je %>-66<<e75:77=5rfarXX*<:5q55<8q7>>e7<-7hpks $::75<,qe1=r7::hf",
"BaX%>>uw<<e77<ee<,xfMr$X*::6e77<8e77,i77>>SeGr@@::qq7<qq6,r7<:ha",
"BjX+>>er7<766<e5<=zibq$X$<<8u775687<<r6<:-A9Bioo:<qqq177<<e5<,ha",
"ly +->e0q<75<<7<q<lhhi$X$:<7e66<<67<>e6755Zsgh $:,e76<66<<766<hf",
"iw.@>>0w5,65<<eq<-gr77oX*>:5955<685<>e76=-V9si  ::q<<<55,<e75:zp",
"uu+@:-w6<,65<:77,-x7ie$o$::57<<>77<>,q77-,Z2suo$::q<<:75:,e5:=z<",
"ds++=-066-7<<=6<==x*e6o $::675<>6<>>:e<<*6z=yyOo-:8<<<75,:75=-z=",
"fs@@--e36:65<,q7<4b=qr@X#:>7851>67><,r5,=7b-ls@ -:e6<<6<<:q7-,B*",
"e> #<60e<77ep<ar7,m<**% $,16ew1wq7eqqieq<7C*s5 %:668816e8et9e5z5",
"kiinllMmmzqrpqaqa5rq:iijhNzBZbmk7afreaipr7a-liqlxbVMNlepe0rfp7iq",
"AlbZljBlhf<q75qq,eel:bcZjbabbflq<iq<,r57,ry9NvNNkfMzcf:i7875<qra",
"cyqfqycsri6ffpirqlif*yiayiyjjsce5ggaihyiqzpqiupiuphisy4jragerjrp",
"*+ ..   #X%,iqq44:%*#.#o  .+  o @,iiqq,7::**$X @ + .@O#5r7q,,-@-",
" %..%%@@    *$*o  @ o.# oo##    X +%%%X   oo *  &*..O   *$$  X@X",
"o>$ ... Oo%  X@oO4>  #== @#$@  o%   $** 24*O -=X..o.  o  @$@X,, ",
"izgggnnt%*%49clficllpngbrmggp=>*#%asjjc9lclcghhpngnt@=**ahilqzba",
"ASKDxhxho#**mlBvbFGFFFHHCMxzg7*-%XNkvvNBbCKGDGDGxbhz@=$-bcbbNFFF",
"7faia6*< O@+q23;;253usffiq551$    q903**7,:-qfhr78<> X o75:=*339",
"*-@$q6:a0uy9fqq0#o+ O      @-:->:#*#%%&;;1e7u78:o@o  $*@X&%*&*O ",
"    o    +  O     .O           +    @  O             X  X@      ",
":,-*:7ufyiquqq00uidd:0:5-57erriaq03>e30wrhir<7<<15,uiaer20>wqidd",
"pbhpvzihgkgkkkkduekvdcppflzhlgghflvkBkff-rbMahuaxzfbhhphBNfsq0vv",
"6<X XX @OO@@@O#OO 0u00*+ o  .o .%@. OO+@o$r778o    @ o#@  .@+ u0",
"z<o   oO..@O. #+.Olkkq*  o  .@..O@@@ &O+ *Vga5X o $o  # % %+OOll"
};
