/* XPM */
static char *win[] = {
/* columns rows colors chars-per-pixel */
"64 64 70 1 ",
"  c #232222",
". c #282727",
"X c gray17",
"o c #2C2C2C",
"O c #2D2C2C",
"+ c #2D2D2D",
"@ c gray18",
"# c #2F2F2F",
"$ c gray19",
"% c #313131",
"& c gray20",
"* c #343434",
"= c #353535",
"- c gray21",
"; c #373737",
": c gray22",
"> c #393939",
", c #3A3A3A",
"< c gray23",
"1 c #3C3C3C",
"2 c gray24",
"3 c #3E3E3E",
"4 c #3F3F3F",
"5 c gray25",
"6 c #414141",
"7 c gray26",
"8 c #434343",
"9 c #444444",
"0 c gray27",
"q c #464646",
"w c gray28",
"e c #484848",
"r c #494949",
"t c gray29",
"y c #4B4B4B",
"u c #4C4C4C",
"i c gray30",
"p c #4E4E4E",
"a c gray31",
"s c #505050",
"d c #515151",
"f c gray32",
"g c #535353",
"h c gray33",
"j c #555555",
"k c #565656",
"l c gray34",
"z c #585858",
"x c gray35",
"c c #5A5A5A",
"v c #5B5B5B",
"b c gray36",
"n c #5D5D5D",
"m c gray37",
"M c #5F5F5F",
"N c #606060",
"B c gray38",
"V c #626262",
"C c gray39",
"Z c #646464",
"A c #656565",
"S c gray40",
"D c #676767",
"F c #686868",
"G c DimGray",
"H c #6A6A6A",
"J c gray42",
"K c #6C6C6C",
"L c #6D6D6D",
"P c None",
/* pixels */
"rasaaaraaasgsdsgfjfjfjjjjjjjzjjjjjjgggjgjjggggggdddddddpppppppda",
"r--&&&&OOOOO++++OOOOOOOOOO++.+++.+++OOO#OOOOO##O#+++OO++++++++#w",
"a:............................................................#p",
"r:.                                                          .#p",
"a:.                       .                                  .*p",
"s:.  OOOOOOO++.+OOOOOOOOO.OOO.OO++++OOOOOOOOOOOO++OOOOOOOO.  .*p",
"s1.  Oassddassjjfkkkkkkxxxxxxxvxzxzzzzzzxjjzjjjjsggsddasgg+  .*d",
"s1.  Oa:81888888055677779999998888ww8ww89888r9w9w9w888222g+  .*d",
"f1.  oa5PPPPPPPPPPPPPPPPPPPPPPPPPPPPPPPPPPPPPPPPPPPPPPPP5gO  .:d",
"f1.  ot5PPPPPPPPPPPPPPPPPPPPPPPPPPPPPPPPPPPPPPPPPPPPPPPP5gO  .:d",
"f1.  Ot8PPPPPPPPPPPPPPPPPPPPPPPPPPPPPPPPPPPPPPPPPPPPPPPP8gO  .:s",
"j1.  Or8PPPPPPPPPPPPPPPPPPPPPPPPPPPPPPPPPPPPPPPPPPPPPPPP8sO  .:g",
"f1.  ot5PPPPPPPPPPPPPPPPPPPPPPPPPPPPPPPPPPPPPPPPPPPPPPPP8jO  .:g",
"k5.  ot8PPPPPPPPPPPPPPPPPPPPPPPPPPPPPPPPPPPPPPPPPPPPPPPP8jO  .2g",
"f5.  or8PPPPPPPPPPPPPPPPPPPPPPPPPPPPPPPPPPPPPPPPPPPPPPPP8j.  .:g",
"k5.  or8PPPPPPPPPPPPPPPPPPPPPPPPPPPPPPPPPPPPPPPPPPPPPPPP8z+  .2j",
"c5.  ot7PPPPPPPPPPPPPPPPPPPPPPPPPPPPPPPPPPPPPPPPPPPPPPPP8xO  .2j",
"k7.  op7PPPPPPPPPPPPPPPPPPPPPPPPPPPPPPPPPPPPPPPPPPPPPPPP9nO  .2z",
"x5.  Op7PPPPPPPPPPPPPPPPPPPPPPPPPPPPPPPPPPPPPPPPPPPPPPPP9nO  .2j",
"c8.  Od0PPPPPPPPPPPPPPPPPPPPPPPPPPPPPPPPPPPPPPPPPPPPPPPPwnO  .1z",
"c7.  Of7PPPPPPPPPPPPPPPPPPPPPPPPPPPPPPPPPPPPPPPPPPPPPPPP9n.  .1x",
"c7.  Of0PPPPPPPPPPPPPPPPPPPPPPPPPPPPPPPPPPPPPPPPPPPPPPPPwNO  .1x",
"c7.  Of0PPPPPPPPPPPPPPPPPPPPPPPPPPPPPPPPPPPPPPPPPPPPPPPPwnO. .1x",
"c7.  Of0PPPPPPPPPPPPPPPPPPPPPPPPPPPPPPPPPPPPPPPPPPPPPPPP9N.  .8v",
"n7o  Ok0PPPPPPPPPPPPPPPPPPPPPPPPPPPPPPPPPPPPPPPPPPPPPPPP9NO  .5x",
"n7.  Ok0PPPPPPPPPPPPPPPPPPPPPPPPPPPPPPPPPPPPPPPPPPPPPPPP9NO  .8v",
"n0.  OkrPPPPPPPPPPPPPPPPPPPPPPPPPPPPPPPPPPPPPPPPPPPPPPPPwNO  .8x",
"c7.  Ox0PPPPPPPPPPPPPPPPPPPPPPPPPPPPPPPPPPPPPPPPPPPPPPPPrnO  .8n",
"n0.  Ok0PPPPPPPPPPPPPPPPPPPPPPPPPPPPPPPPPPPPPPPPPPPPPPPPrn.  .8n",
"c7.  Oc0PPPPPPPPPPPPPPPPPPPPPPPPPPPPPPPPPPPPPPPPPPPPPPPPwNO  .8n",
"n0.  Ok0PPPPPPPPPPPPPPPPPPPPPPPPPPPPPPPPPPPPPPPPPPPPPPPPwnO. .5n",
"c0.  Ox0PPPPPPPPPPPPPPPPPPPPPPPPPPPPPPPPPPPPPPPPPPPPPPPPwN.  .8n",
"n9.  OxrPPPPPPPPPPPPPPPPPPPPPPPPPPPPPPPPPPPPPPPPPPPPPPPPwNO  .8n",
"v9.  Oz9PPPPPPPPPPPPPPPPPPPPPPPPPPPPPPPPPPPPPPPPPPPPPPPPrnO  .8N",
"n9.  OxrPPPPPPPPPPPPPPPPPPPPPPPPPPPPPPPPPPPPPPPPPPPPPPPPwNO  .8n",
"N9.  Ox9PPPPPPPPPPPPPPPPPPPPPPPPPPPPPPPPPPPPPPPPPPPPPPPPrNO  .9N",
"n9.. Oz9PPPPPPPPPPPPPPPPPPPPPPPPPPPPPPPPPPPPPPPPPPPPPPPPaNO  .9N",
"Nr.  Oz9PPPPPPPPPPPPPPPPPPPPPPPPPPPPPPPPPPPPPPPPPPPPPPPPrNO  .9N",
"Nr.  OxrPPPPPPPPPPPPPPPPPPPPPPPPPPPPPPPPPPPPPPPPPPPPPPPPaNO  .9Z",
"N9.  Oz9PPPPPPPPPPPPPPPPPPPPPPPPPPPPPPPPPPPPPPPPPPPPPPPPaZO  .9Z",
"Nr.  ok0PPPPPPPPPPPPPPPPPPPPPPPPPPPPPPPPPPPPPPPPPPPPPPPPaZO  .9C",
"nr.  oxrPPPPPPPPPPPPPPPPPPPPPPPPPPPPPPPPPPPPPPPPPPPPPPPPaZO  .9C",
"Nr.  OxrPPPPPPPPPPPPPPPPPPPPPPPPPPPPPPPPPPPPPPPPPPPPPPPPaHO  .9Z",
"Na.  On0PPPPPPPPPPPPPPPPPPPPPPPPPPPPPPPPPPPPPPPPPPPPPPPPrHO  .wZ",
"na.  On9PPPPPPPPPPPPPPPPPPPPPPPPPPPPPPPPPPPPPPPPPPPPPPPPaH.  .9Z",
"Na.  OnrPPPPPPPPPPPPPPPPPPPPPPPPPPPPPPPPPPPPPPPPPPPPPPPPrKO  .9H",
"Za.  OnrPPPPPPPPPPPPPPPPPPPPPPPPPPPPPPPPPPPPPPPPPPPPPPPPrKO...wZ",
"Na.  OnrPPPPPPPPPPPPPPPPPPPPPPPPPPPPPPPPPPPPPPPPPPPPPPPPrK.  .9H",
"Ca.  OntPPPPPPPPPPPPPPPPPPPPPPPPPPPPPPPPPPPPPPPPPPPPPPPPrKO. .9H",
"Ca.  OCtPPPPPPPPPPPPPPPPPPPPPPPPPPPPPPPPPPPPPPPPPPPPPPPPrK.  .rZ",
"Zt.  OCtPPPPPPPPPPPPPPPPPPPPPPPPPPPPPPPPPPPPPPPPPPPPPPPPaKO  .wH",
"Za.  oCtPPPPPPPPPPPPPPPPPPPPPPPPPPPPPPPPPPPPPPPPPPPPPPPPrKO. .9H",
"Za.  oZtPPPPPPPPPPPPPPPPPPPPPPPPPPPPPPPPPPPPPPPPPPPPPPPPaKO  .rH",
"Ca.  oAtPPPPPPPPPPPPPPPPPPPPPPPPPPPPPPPPPPPPPPPPPPPPPPPPrKO  .9H",
"Za.  oAtPPPPPPPPPPPPPPPPPPPPPPPPPPPPPPPPPPPPPPPPPPPPPPPPpHO  .wH",
"Ha.  oAtPPPPPPPPPPPPPPPPPPPPPPPPPPPPPPPPPPPPPPPPPPPPPPPPrKO  .9H",
"Hp.  OH0PPPPPPPPPPPPPPPPPPPPPPPPPPPPPPPPPPPPPPPPPPPPPPPPaHO  .9H",
"As.  OArPPPPPPPPPPPPPPPPPPPPPPPPPPPPPPPPPPPPPPPPPPPPPPPPaHO  .wH",
"As.  OH0PPPPPPPPPPPPPPPPPPPPPPPPPPPPPPPPPPPPPPPPPPPPPPPPrHO  .rH",
"As.  OArPPPPPPPPPPPPPPPPPPPPPPPPPPPPPPPPPPPPPPPPPPPPPPPPpHO  .wH",
"Hs.  OAtPPPPPPPPPPPPPPPPPPPPPPPPPPPPPPPPPPPPPPPPPPPPPPPPrHO  .rH",
"As.  OAaPPPPPPPPPPPPPPPPPPPPPPPPPPPPPPPPPPPPPPPPPPPPPPPPrHO  .rH",
"Hs.  OZtPPPPPPPPPPPPPPPPPPPPPPPPPPPPPPPPPPPPPPPPPPPPPPPPrKO  .rK",
"Af.  OZtPPPPPPPPPPPPPPPPPPPPPPPPPPPPPPPPPPPPPPPPPPPPPPPPrKO  .rK"
};
