/* XPM */
static char *cardboard[] = {
/* columns rows colors chars-per-pixel */
"64 64 159 2 ",
"   c #AB7F5A",
".  c #AC805B",
"X  c #AD815C",
"o  c #AE825D",
"O  c #AF835E",
"+  c #B0845F",
"@  c #AC8461",
"#  c #AE8663",
"$  c #B18560",
"%  c #B28661",
"&  c #B38762",
"*  c #B28564",
"=  c #B48766",
"-  c #B48863",
";  c #B38866",
":  c #B18B67",
">  c #B58964",
",  c #B68A65",
"<  c #B58867",
"1  c #B78B66",
"2  c #B68C66",
"3  c #B88C67",
"4  c #B68968",
"5  c #B58A68",
"6  c #B78A69",
"7  c #B48C69",
"8  c #B58D6A",
"9  c #B48E6A",
"0  c #B58F6B",
"q  c #B88B6A",
"w  c #B98D68",
"e  c #B88E68",
"r  c #BA8E69",
"t  c #B98C6B",
"y  c #BB8F6A",
"u  c #BA8D6C",
"i  c #B98E6C",
"p  c #BB8E6D",
"a  c #BA8F6D",
"s  c #BC8F6E",
"d  c #B7916D",
"f  c #BA906A",
"g  c #BB916B",
"h  c #BC906B",
"j  c #B8906D",
"k  c #BB906E",
"l  c #B8926E",
"z  c #B9936F",
"x  c #BD916C",
"c  c #BC926C",
"v  c #BD936D",
"b  c #BE926D",
"n  c #BD906F",
"m  c #BC916F",
"M  c #BF936E",
"N  c #BE946E",
"B  c #BF956F",
"V  c #BB9370",
"C  c #BE9170",
"Z  c #BF9271",
"A  c #BE9371",
"S  c #BA9470",
"D  c #BB9571",
"F  c #BC9471",
"G  c #BD9572",
"H  c #BF9472",
"J  c #BC9672",
"K  c #BD9773",
"L  c #BE9673",
"P  c #BF9774",
"I  c #BE9874",
"U  c #BF9975",
"Y  c #C0946F",
"T  c #C09372",
"R  c #C19570",
"E  c #C09670",
"W  c #C29671",
"Q  c #C19473",
"!  c #C09573",
"~  c #C39772",
"^  c #C29574",
"/  c #C39675",
"(  c #C29775",
")  c #C49776",
"_  c #C39973",
"`  c #C49873",
"'  c #C09875",
"]  c #C19976",
"[  c #C39876",
"{  c #C09A76",
"}  c #C19B77",
"|  c #C29A77",
" . c #C59974",
".. c #C69A75",
"X. c #C59877",
"o. c #C49977",
"O. c #C79B76",
"+. c #C89C77",
"@. c #C39B78",
"#. c #C69978",
"$. c #C59A78",
"%. c #C79A79",
"&. c #C69B79",
"*. c #C29C78",
"=. c #C39D79",
"-. c #C49C79",
";. c #C59D7A",
":. c #C79C7A",
">. c #C49E7A",
",. c #C59F7B",
"<. c #C69E7B",
"1. c #C79F7C",
"2. c #C89B7A",
"3. c #C99D78",
"4. c #CA9E79",
"5. c #C99C7B",
"6. c #C89D7B",
"7. c #CB9F7A",
"8. c #CA9D7C",
"9. c #C99E7C",
"0. c #CB9E7D",
"q. c #CC9F7E",
"w. c #C6A07C",
"e. c #C7A17D",
"r. c #CCA07B",
"t. c #C8A07D",
"y. c #C9A17E",
"u. c #CBA07E",
"i. c #C8A27E",
"p. c #C9A37F",
"a. c #CAA27F",
"s. c #CDA17C",
"d. c #CEA27D",
"f. c #CDA07F",
"g. c #CCA17F",
"h. c #CFA37E",
"j. c #D0A47F",
"k. c #CEA180",
"l. c #CDA280",
"z. c #CAA480",
"x. c #CBA581",
"c. c #CCA481",
"v. c #CCA682",
"b. c #CFA985",
"n. c #D0A382",
"m. c #D1A580",
"M. c #D2A681",
"N. c #D3A782",
"B. c #D3A685",
"V. c #D4A786",
"C. c #D4A883",
"Z. c #D0A885",
"A. c #D0AA86",
"S. c #D1AB87",
"D. c #D5A984",
"F. c #D6AA85",
"G. c #D6A988",
"H. c #D8AB8A",
"J. c #DBAF8A",
/* pixels */
"3...Y Y ~ ~ Y b y y y b b ~ ~ ~ ..~ b ~ ..3.d.3.D.d...~ ......` b b Y ~ Y b b b ..Y h 3 3 b ~ ..p p s ~ #.5.^ n C p p C ^ ^ C n ",
"..~ b b Y b b y 1 3 h Y ~ ..+.+.~ ~ Y ` +.d.3...M.d...~ ..3...` ~ ~ ~ ` ~ ~ ~ b b b y y y h ~ ` ^ T n C ^ #.X.^ ^ T C T ^ X.T C ",
"~ Y b y b b y y 3 3 h b ~ ..3.3.b b Y ` 3.r.3.+.d.3...+.3.3...~ ~ ..` ..` ~ ~ Y 3 3 y 3 y b b Y 8.X.C C ^ X.#.#.5.#.^ X.X.#.^ C ",
"..~ b b b b b h y y h b Y ~ ~ ..~ Y Y ~ ..3.d.r...+.+.3.3.3.+...~ ` ..` ` ~ Y b 1 1 1 3 y y b b 8.5.#.^ ^ X.#.#.8.#.^ ^ X.X.^ T ",
"+.` b Y ~ ~ b b b b y y y y 1 1 ~ Y b h b ..d.D.+.+.3.3.3.3...+.Y ~ ~ ~ ~ b b y 1 1 1 y y y h h X.#.8.5.5.X.X.^ 8.#.^ T T ^ T C ",
"+...Y ~ Y ~ ~ b b b h y 1 & & & ~ b b h b ` d.D.3.3.r.3.......3.~ ~ Y ~ b h y 3 y y 3 3 3 y y h T ^ 8.8.#.X.^ ^ 5.X.C n C ^ ^ T ",
"..~ b b b ~ b h ~ b b y 1 1 & & 3 b ~ ~ ~ ` d.j.d.d.d.3.~ ~ ` 3.` ` ..~ Y b y y ~ b y 3 1 3 y b C ^ #.#.) ^ #.5.#.T p p C T ^ ^ ",
"..~ b y b b h y b b h y y y 1 1 + y ~ 3.3.+.3.3.d.d.r...Y b ` 3.+.+.....~ ~ b y ..~ b 1 1 3 h b T ^ ^ T n C #.k.X.T p p C ^ X.X.",
"b 1 y b b 1 1 b 3 1 1 y b Y b 3 ~ ~ b b b b b b 3.........` ~ ~ 3 y ~ ` ..~ y y h b y 1 & & y Y ^ #.2.^ C T ) 5.5.X.C n C #.5.5.",
"b 1 y ~ ~ b b ` b h 3 y b Y ~ Y ~ b b b b b Y Y ........` ` ` ~ b Y Y Y ~ b b h y h Y b y 3 y b C T ) ) ^ ^ ^ ) 8.#.X.^ X.^ C n ",
"b h b ` ..~ ..3...b y 1 y Y ~ ` b b b h b ~ ~ ` ~ ~ ~ ` ` ........` Y b y h b b & 3 b ~ b b y y C C C T X.) ^ T X.X.X.5.5.#.T t ",
"~ Y b ~ ~ ~ ......~ y y b Y ~ ~ y y y b Y ~ ....~ ~ ~ ` ` ......+...~ b b h y y & - y y b y 3 y ^ n t p T ) ) T C C T X.5.8.#.^ ",
"~ ~ ~ b h b b b Y b y b b Y b y 3 y y h ~ ..3.3.~ ~ ` ....+.3.+.....` ` ~ h y 1 1 1 3 y y h b b 2.T 5 6 p ^ X.#.^ C C T X.5.5.#.",
"` ..b y 1 y b 3 h y h b ~ b y - 3 y y b Y ..3.d.....3...3.3.3.3.` ......~ b y 1 ~ b h h b ~ ~ Y 8.) n 6 p C ^ #.#.X.^ ^ ^ #.X.^ ",
"Y ..~ 1 1 b Y y Y h y 3 y y y 1 y y y b ~ ..3.3.r.r.r.3.3.3.3.3.+...` Y b b b b b h b Y ` ~ b y ^ #.X.) L C C ^ ) ^ ^ #.:.:.^ C ",
"b ~ Y 1 1 Y ..Y ..b 1 & 1 3 y y y y h b ~ ` 3.r.d.j.d.d.d.3.d.3.r.+.~ y y y Y ` 1 1 y b ` Y 1 . L #.k.q.#.C V k 5 p L :.k.k.#.^ ",
"b b Y ~ ~ ~ b Y 3.~ b ` ~ y 1 1 ~ 1 1 b ~ 1 Y M.C.3.3.d.3.~ ~ ..r...Y Y ~ Y h 1 h 3 h ~ y O O 2 ] :.>.L D L V 7 8 D :.w.w.} :.z.",
"Y Y Y Y b ~ Y Y ..Y Y ` ~ y 1 y b & 1 ~ ~ y ` D.M.d.d.d.3.+.+.3.+.` Y b Y b 3 - y 3 3 Y h 1 - c L :.>.U U >.} D G } w.w.>.U D L ",
"~ ~ ~ ~ b ~ b Y ` b b ` ~ y y b y 1 3 ~ ..~ ..D.M.M.d...3.r.d.j.+.` Y b h y 1 & y - 1 h Y b b B D >.>.U U w.w.U U >.>.,.U D D d ",
"....~ b Y b Y b b h Y ~ ~ y y Y b y b ....~ ..M.d.j.d.~ ` d.C.d.+...~ Y h y 1 - Y 3 - 3 Y _ ~ B D >.w.U >.w.w.U D D L U U L U K ",
"....~ Y b b Y Y b y Y ` Y y h ~ ~ ~ ~ ..~ b ~ 3.3.d.+.b Y r.M.d.3.3.+.` Y h h y ` Y 3 3 h Y ~ B L >.>.U U >.U D z d D K U >.U >.",
"..` ~ b Y Y ~ ~ h h ~ ..Y y y ` +...` b y y ~ +.+.3...~ ~ 3.3.3.+.+.+...Y b b Y ..` h - 1 h Y h G >.>.L K U U z U D D K U >.U U ",
"....~ b b Y ~ ..h b ~ +.Y 1 y ~ ....Y y 1 y ~ +.r.+...3.+...3.r.~ ` +.` Y h Y Y Y ~ Y - + 3 B B G } >.U U w.,.U ,.U K K U >.U U ",
"` ~ Y b Y ~ ..+.b b ` ..b 1 y ~ ` ` b - & y ..r.j.+.3.j.d.+...d.h Y ` ~ h y b ~ h ~ Y + . 1 ~ _ V } >.>.>.x.x.w.w.U K U >.w.,.U ",
"b b y 1 y ~ Y 1 + h ....h 3 y ~ y h y 1 1 y ..r.r.3.3.d.d.r.3...+.` ` ` ..` b 3 - & - h h - - c V K U z.x.x.v.x.,.U >.x.w.K d d ",
"Y Y y 1 y ~ ~ y 3 b ~ b y 3 b ` b b h 3 y b +.M.3.3.3.3.d.d.3.+.3.+.+.+.3...Y h 3 - - h 3 & 2 B @ : D U ,.>.U D >.U U w.>.D 0 d ",
"~ ~ h 1 1 Y ~ h ~ b b y y y Y ~ h b b y y Y 3.M.3.+.+.3.d.d.r.3.3.+...+.+.` Y h 3 - 1 3 1 & 3 Y # 9 U w.x.z.>.K w.U U U U z d K ",
"~ ..b 1 y b ~ ~ ~ b y y b ~ Y b 1 3 3 1 y b ..r.3.3.+.3.d.d.r.3.+...` ` ..` h 3 3 3 3 - & - y Y D U z.b.A.b.x.w.x.>.U >.U D D U ",
"` +.` y y b ~ b Y h y y ~ ~ y 1 1 1 3 y y b +.d.3.3.3.3.d.d.3.3.+.+.+.+.+...Y h 3 y 3 - & 1 h G U } } :.z.z.z.x.x.U K U K d z U ",
"~ 3.3.Y b Y ~ b y y y b Y b 1 O 1 y h h b ~ 3.M.d.3.3.r.r.d.+.` r.r.3.3.r.+.` b - y h - & 3 b b } } U ,.,.w.w.x.w.U V D D 9 0 D ",
"Y 3.d...b Y ~ b y y 1 1 3 1 - & - y y b Y ~ 3.j.d.d.3.3.r.r...~ 3.+...+.+.` b y & y b 1 - h b y } } ,.w.z.w.w.z.z.U U >.U V z U ",
"b 3.d.3.~ ~ b h b y 1 & & & & 1 + - 1 y h ~ 3.d.M.d.d.r.r.3...~ Y Y b b Y h 1 & + h b 3 3 h b 8 j K U :.:.:.} L b.z.8.z.z.} U >.",
"1 Y +.4.O.~ ~ ` 3 r h Y h 1 + . & - 3 r h h Y ` r.r.4.r.r.4.` Y 3...Y b Y Y h 1 1 y y y - & + & ; p ] #.#.^ V s 8.:.} T ^ #.#.8.",
"y Y O.4.+.O.....Y Y ~ ~ Y Y 3 - 3 r Y Y h h Y ` 4.+.+.+.4.+.` Y ` Y b b b b y 1 1 3 y 3 1 - 1 3 6 b X.3.X.T C C 8.#.^ H T ^ #.8.",
"Y Y W ..7.4.+.` ` ` ` W Y Y h h y h Y Y Y W O.7.+.+.+.+.+.+.Y h b Y Y b y 1 3 y y y y 3 - 1 y b T ^ 5.2.X.^ T T #.#.^ C C T } 2.",
"Y h y Y ` O.` Y ~ Y h r 3 3 r y 3 h Y Y ~ +.j.F.r.7.+.7.r.4.` Y Y ` ` ~ 3 1 3 3 Y Y h 3 - 1 y Y X.#.8.5.#.X.X.X.#.^ C C C T ^ #.",
"h y , 3 h Y Y y Y h y 1 , 1 3 y Y Y Y Y Y ..r.j.j.j.h.h.j.h.+.~ +.r.r.` h - 3 3 ` ~ b y - - 3 h ) #.8.5.5.X.#.5.#.) T n n T ) #.",
"Y h 3 , 3 3 3 3 W Y h y r y h Y ....` Y h Y ` +.j.j.j.j.j.j.r...r.r.3...Y y 3 3 Y Y Y y 1 1 3 h T X.5.k.5.5.5.5.#.#.T C C T X.2.",
"..` Y y 3 1 y h Y Y Y Y Y h Y Y W Y Y h 3 h ` 4.j.j.j.j.j.j.4.` +.` Y Y Y b h y 1 3 y y 3 3 h h p T 5.k.k.5.5.5.5.#.^ T T ^ #.5.",
"r.7.+.Y 3 3 h ~ Y h Y Y h Y h Y - - , , 3 Y 4.j.j.h.r.d.j.r.+.~ ~ b y h Y ~ b y . & 1 3 y h b b 5 n 5.k.k.8.5.5.8.5.X.^ T ) 2.8.",
"h h h h h y r r - y Y W Y h 1 + h ` O.Y h ` ..Y j.C.C.j.j.4.` Y +.` ~ Y b h 1 + + O + & - 1 1 1 t T X.2.#.) ) ^ X.^ ^ ) ) X.) ^ ",
"h h h h Y h Y Y y Y Y Y Y h 3 1 h ` ..Y h ` +.O.4.r.r.h.d.+.` ~ ~ Y b Y ~ ~ h y 1 1 1 1 1 3 1 1 s T 2.8.5.#.#.#.^ ) ^ X.#.X.) T ",
"h h h Y Y W W ` W W ~ ~ ~ Y Y Y h ~ W h h ` 7.r.~ ` +.7.r.7.+.O.` Y Y ~ ` ` ~ h h y h y y 3 3 3 C ^ 8.q.8.5.5.2.T ^ #.2.5.X.^ T ",
"Y Y Y Y Y ~ Y ~ W ` ..+.+.` Y h h h h 3 3 Y +.h.` ..+.7.r.r.r.4.r.+...` ` ~ h 3 h y y y y 3 3 3 n ^ 5.q.8.#.#.#.s ^ 2.8.5.X.T C ",
"` ` ` W Y Y Y h h W +.r.7.` Y 3 3 3 1 1 3 h ..d.7.r.r.r.r.r.7.7.3.+.` ` ..` b y & - - 1 3 3 3 y p C #.5.2.X.) ) p ^ 5.8.2.) T T ",
"+...` ~ Y h y y r Y ` +.+.~ y 3 3 - , y h h ` r.h.h.d.r.r.7.7.7.~ Y Y ~ ....` Y O + + & - 1 3 3 t C X.2.#.^ ^ ) s ) 8.8.X.T T ) ",
"` ~ Y Y h h h y Y Y Y Y h h y y y 1 3 Y Y Y ~ d.r.r.7.4.7.4.7.7.Y b b ~ ` ..` ~ & + - & - - 1 1 p T #.5.2.X.X.X.n ) 8.5.^ C ^ 2.",
"Y Y Y h Y Y h Y ~ Y 3 - - 3 r Y Y y Y O.O.Y ` h.O.O...+.+.+.7.r.` ` Y Y ~ Y b 3 1 1 1 - - - & & n ^ 5.k.8.5.#.2.C X.8.2.T n ^ 5.",
"h Y ` ~ h h Y W h h h y 1 - 3 h +.Y 3 h Y Y ..j.7.` Y Y 7.j.r.O.O.` ` W Y Y Y h h h y 3 1 - - + p T ) #.5.2.5.8.5.X.) T T X.5.q.",
"Y ~ ` ~ Y Y Y W Y Y Y h 3 3 3 Y ~ y 1 3 y y W r.j.7.~ ~ +.r.r.r.O...` W Y Y h h 3 3 1 1 1 - - - = 5 s T 5.k.5.#.5.#.) T T X.X.2.",
"..` W ~ ` ` ` W Y Y Y h y y h Y ~ y , y y y Y r.j.h.+...+.+.r.d.+.O...~ Y h h h - - - - - - - - = * = ^ n.G.n.#.2.X.) T T T ^ X.",
"..Y Y Y ` ` W h h Y Y h r 3 Y Y ` h r h Y Y ` r.+.+.7.4.+.+.4.r.7.+.+.` Y Y h h , 1 - - - & & + 6 t n 5.B.H.B.q.2.X.^ T C C T T ",
"~ Y y h Y ~ Y 3 3 h h y 3 3 y Y W h 3 Y Y Y ` r.h Y +.r.r.7.O...4.+.+.` ` Y Y h h y 3 , & + o . t n X.8.k.k.k.q.X.X.) T T T C T ",
"Y h h h h Y h y 3 3 r 3 1 1 y h Y 1 1 y h y Y ` h Y ` 7.r.r.` Y ....` ` Y Y Y Y Y Y h 3 - + . . t n ) X.) ) X.X.X.) ) ) T ) T T ",
"Y Y Y Y Y h h Y 3 r h y 3 y h Y h 3 1 h h y Y ` 7.O.` O.7.7.` Y Y Y Y Y Y Y Y Y Y Y h y 1 & + + s p p n T ) X.) ) ) X.X.X.X.X.) ",
"Y W ..` Y y Y ` h h Y h h h Y ` Y r r Y Y Y ~ +.J.j.O.~ O.+.` Y h h h Y h Y h h Y h h r 3 3 1 , ) s = p X.q.q.#.) ) X.#.2.2.#.X.",
"` Y h h h h h Y - 3 3 3 3 3 h W 3 Y Y h 3 3 Y r.j.r.+.+.4.+.~ Y + , 3 y 3 h Y ` Y W h + . - - + t t n T ^ T T C 5.#.#.) T ) ) ) ",
"..` ~ Y Y h Y Y y Y Y Y h Y W ` Y Y ~ h 3 3 Y 7.h.r.+.4.7.+.+.O.y h Y Y h h Y Y h Y y + + 3 h 1 n T T X.X.^ T n n T T T T T n s ",
"+.+...~ Y Y Y Y 3 h h y 1 , 3 Y ~ ~ Y r - 3 W 7.+.r.r.r.4.4.r.r.` +.O.` Y y y h y h y - 3 h Y Y T ) 2.5.5.) T p 6 p T X.X.T s t ",
"+.+.` Y Y h h h 3 3 3 1 + + - - Y Y h , - , Y O.4.h.j.h.4.+.7.h.r.d.7...h 3 1 3 3 y 3 3 3 h h h s C X.5.5.X.T n t n T X.X.X.T C ",
"` ` ~ Y h h 3 3 h h Y y 1 - , 3 h h 3 - & - h ` d.j.F.j.+...+.7.d.h.r.` h - - - h r 3 y 3 - * * = t T X.2.X.) T T T T T T ^ X.X.",
"W ~ Y Y Y h 3 3 y h r 3 - & - 3 3 3 - - - 3 Y Y j.j.j.h.+.O.` O.r.r.r.O.Y 3 1 3 h r y h 3 + .   = 6 n T X.#.X.X.T T n n n C T ) ",
"Y Y ~ ` Y Y h r 3 3 3 - & + - 3 1 1 1 r h Y W ~ h.r.7.+.4.+.+.` 7.r.r.+.~ h Y Y Y 3 h Y Y +   O s n n T ) X.2.5.^ ^ T ^ ^ T T T ",
"W ` ` ` ` W Y h Y Y Y Y r y h Y 1 3 r Y ` O.O...r.+.` O.r.r.+.` 4.r.r.4...` ` ` Y y h ` W , O * X.) ) T T X.2.5.) 2.5.k.k.5.T T "
};
