/* XPM */
static char *grass[] = {
/* columns rows colors chars-per-pixel */
"64 64 91 1 ",
"  c #253E1D",
". c #2A3D1E",
"X c #36331F",
"o c #3D301F",
"O c #2B3C20",
"+ c #353721",
"@ c #3C3522",
"# c #313A21",
"$ c #3C3923",
"% c #432E1F",
"& c #433221",
"* c #4C3424",
"= c #1E4417",
"- c #1F4318",
"; c #214617",
": c #23421A",
"> c #2B441C",
", c #264A19",
"< c #2B4C1A",
"1 c #33441D",
"2 c #38451E",
"3 c #324C1D",
"4 c #3B4C1C",
"5 c #2D5219",
"6 c #2F5819",
"7 c #33541B",
"8 c #3B541D",
"9 c #355A1A",
"0 c #3B5D1C",
"q c #3D621B",
"w c #3E681A",
"e c #2D4220",
"r c #314320",
"t c #384621",
"y c #334B20",
"u c #394D20",
"i c #375020",
"p c #3A5220",
"a c #3E5920",
"s c #464C1E",
"d c #44551D",
"f c #425D1D",
"g c #4B5C1E",
"h c #515D1F",
"j c #42651D",
"k c #4A641E",
"l c #446B1C",
"z c #4A6D1D",
"x c #52651F",
"c c #546D1F",
"v c #47701B",
"b c #4C731C",
"n c #4F781C",
"m c #52751E",
"M c #5A751E",
"N c #537B1D",
"B c #597E1E",
"V c #627A1F",
"C c #434620",
"Z c #4D4623",
"A c #4B4A22",
"S c #415621",
"D c #495621",
"F c #455B20",
"G c #4C5A21",
"H c #535620",
"J c #545C21",
"K c #5B5E23",
"L c #476220",
"P c #4C6520",
"I c #4E6920",
"U c #566221",
"Y c #536B20",
"T c #5A6922",
"R c #567420",
"E c #5B7320",
"W c #5C7920",
"Q c #56811C",
"! c #5B831D",
"~ c #5E891D",
"^ c #61851F",
"/ c #638B1E",
"( c #698E1F",
") c #66901E",
"_ c #6A921F",
"` c #5F8120",
"' c #608220",
"] c #688721",
"[ c #658820",
"{ c #6A8D20",
"} c #719820",
/* pixels */
"lnl;0 z6QLN:IN0jI _l>ll-NI8:{<,6<>vb:v..q-9,903znb,<bw,wv9nQ0!95",
"qll;L OaQbqq`n l`:mn<9lnN <b~b8v0ezv3q#.N8l:><,/0q0<b5,:b:0v6!,>",
"qb <R<Lq6aqzQ0Omln9lQiqll q[~bqN000j9B:Ynjl p<,jw5ljq:q>q ww;n:N",
"nb qN<jQvB,qW>evq<<qQR!v ><'njl[.<llmm>mq#LlO,0:q-39m`l87:l7:3jb",
"QN:Qb:<_Nm:Qm9::9-bwwbl6LO<B9pnv3 jmb9.kvCNn+:lj,l8qb!9M<:qq65/q",
"N<-nq:z[nl lvmL 0:[;6`<,>ElqlIQ7f~z9z5#jNGjw#ljzllBQmmqbBO90q,!>",
"Q,>In:[l6qI69LQ n>`:lBe:NRl6qO~,N!0qv5hqnl<<jl: jj~m!qnvB#< l 3/",
"vql5n N<N0vl6Blyn 5:6q9NQjn:w<n )bl5l046[v0,v:<>l6bjN7ljNL  j7jQ",
"<6lvlO76Q,l9jq>jB77<Q6pv::m:Bjze~vb ;z0<l <:qj:077080-liwnfqy9Nn",
":mRj IQ6nve:Q6OP<<7<Q:e< zQ0lBb4bl:f8qj9q0:jbB3l:;qw5:jn669<a<n ",
" bz7 Rn:>v#:nqNP:0l:N3)5Rmjz5/m809qxm0Nj><.l9jkQ<q5555RQ<,9:6-9Q",
"lNq a#<>9pp<,.zl 9Qeb Q7knv.6bQg5lqkQj,<<:>5:7&N>39,0:[0 l< 3<qz",
"8!bnBF::,lO:9bbbOqjjl [b,nlzvqm^jQ7ll)0Q7 :<jvZ(>3<vqjQl90-8lqlv",
"Ow)j!m:::l&:q!jKOl0lzl!q:9:qjN7QN9#09/b O<3.<zkBmqnNqjbF<.l8q6nj",
"#mB:5I>7R7$l:,Ojvb9lqqlq jF99j7vN <O:N0:ijLI,vNBb:vbI08.T98v,70q",
"nvw Nn LP9Nmqb3u03n8vlv,rl:jl9 6v ;%9m9.vbu0 7Qm9OqQ0n5.SN>+Lr5:",
"lq,<00O`k>076l f6mB15vN9gN<3bw:3l.7d<(,Nl0Uq05nlvm<m<b5q#'^jz9,b",
"0;B6ql#wB0,8:q>>,!v<5bqf3 bl6v ,9!/1,_ jbbQ:<bw6Q!:Q:q:zEb!N0m j",
"O:q->qA9Nl,8: q: nj;b0 j cNN5q ,Nb_n,(Q90qQ evn<jQ>qq8$!Q7zj9n  ",
"O:p-O9nq:85zv$9.jl>>3: 3j5nNjl:0Bn/B )l;5aBLnlq,6Q#j-3.j00v9,N 9",
"y v0#v6m>q9mq@a#zj>q:lb7j:Qllk>75Qlj7~l RI)~qvnn0j3m5:.eqjv,;b1<",
":qlz+qwmq63b>3@jm9O/7n8fv.bll~ ;3wl69v0,mbmqmvnqN6F:q9.z><m: j6q",
"zqq9+>nlO9:Qj0^ma<8Nl:l59XvNzbjb3vq5vw:blpIlnqb9:5mj<<pq1,j.ONbB",
"b039#::9:qjb3k(0z<1,5j6:7flb9v9Q09b;j6nl3,b9`zl:bbjvzelj:3zyjNz9",
"mef<>856.m>q<8z49,q <<n0 j0llf< z(Nvq9jn9>q5~nl7NQllmy:,>.qc7lq,",
"lOmjl3vw lm5.&0Q::,0-:l>q>6Nqjq:,Nbqv5fl,:n<l<N<lN:0B!0qj1lz:,: ",
"ql05m:7l 8m<9#9/:<55<R6:N7NBvcb 3+q:bbB0-zvvQ:j$lb:xql03{e<bm  t",
"l8q3~  qO6jl5lQNOz.: m<e7,NllNbl:19lj0B<,Ql6lvv#,,:Nj5kqB86l9:qg",
"03!j8 .jl8Bm:lvQlQ3j.b8 5 N9<wqv -qL97B eNa,<vvlqw>w`Nl>!l> ,<q1",
"3>( Xj9c5.0bm7m9lQxb#lk,b7lN N1NO:zbln!<6NmN>lq6F9:lQ9qv~!0z:,lj",
"<bv>Hl5b:q<6z@7<nQ3B+6Y:Nj0N3w,q.30jL~N>5nb~:llnvjO0q6<5lmlb<>j>",
"3blbV0<k88I:0+q,lv9bh,mN5#>l:7jl Nn9$llbe>Ol:5w!Ib.lORv- qQN  vj",
"0<Qn'7<8m5[:7:R c9,7V:qN,E B:8Q<On~v:06N>97<: qLnbnv4}!<3<vqjlNw",
"l,nvB:71w:`:,:):q,l9bv8;l/0I On:Plmbll<n05B:jj00v0vqN_5<a.:jjn77",
"Q 9 0^j+<Hv>9I9mNb9/qj3 QqlO:Ej3T7>Q9b-Gbv0393O<b3lRBQ:q#.:,.6:w",
"!7,39mOO< 5R<b,w9!,Qqm903YQOyzQvK< le,:FNnj <0R!v0bm~:7l#q> k6,m",
"q5 wNL>,,q:Q-b `mlQNNl6j,9vr7qjv*5Oj :<1jql0:x!Q9lBbbjjboq.>0QnB",
";v lN9qil0bm5nl~bjNqQ!<<B:j!O<#nTq.9m3:50<9bjvQbqzbv!5qb%NOg qmQ",
".n.0q9lLL,Il0n>Q0qwqQlz:j v^Y:.l)n ,lB .v 5lbjq3qv59b>vNs!.j  ln",
"Vl:4`veQlQj8l;>qvj;8qlq:57Nj*.5l~f' bBO>j:vj7j6,0N:5!#5NMb.88 :v",
"Bl:~N:!7jqO9m~<qqj:!96; j:0<b76NNz':Nv!jn qq57::5~>9Nqn0gN 8m:80",
"xl5Nvj(,<63qqm:0:b 7Nl: lyv:q.q!B!Wjq7~7q@8l:! >5vqqN9w3q09 l:9j",
"zl>N0~B>vQ38:lnN b.0zB . >n:.fqwjNkz93N:0>.!.Q.nqmlNbbq,w<000BNb",
"7B367lv<N0657lN<;fllbl.3j$qBal7<lv8l,1!bb77~9N3b5mbw6b<:nQl7fb<>",
">5 ,538 Lv9j:,09:bqb7l#783jln9<-qq.5j0vcq!6~q0<v:vlv=q:kNlQnjqQk",
"b7N6,z:9lqB7B:,,em,mql$l,n5QqI>:5j3lm:B qj;qj,vqlvNl3  [N7b0j5N0",
"Nnq 3j7QziN0lz: jj<qkN>k:l:nlB<O;j80~8w3<q<<v.jqlQj0m vllq0<,lN9",
"v/7qjm5bl0qz> :lN7.jcq3m:9>90ql*q6q6Q~983mj:0X 7j<07z.v985<n 0v0",
"vb><5~<,9Ok(-<3>0>0lq5 m.<:,q<v$v>0~nnwN.QBn7Olj!Bz:l`b<O696:lmm",
"v77:!bl90Oc~3jv.>8 j,<<b.6i N3nl0ylQ9w6[jvw4qk0:N(5l:m,-fQm6e[Bv",
"qOj ~b~:lqgl>Oj3fl35m9 <7v01/q!BvqQ9BwnQ9!0.Ol6:bmq9 v5<BnjRnN`b",
"<jB>Qq~qz.k6<Dv:f 0,l97 vl Gmb.zQ<Q7N<nw7lq  8vO~m<6jw>:qQaNbq^Q",
"Rmv#,qbn7:B:7W00m.z:8>Q3l<:b90:]q9n:l>Qv^ln.>360Q69,/9.05QOf76jn",
"mvNI3qN>7jv>l!:Bb#b5x>~fw0Oll0zmmNl::p``!9c.0;w.~v,-bly9NB4j-=8j",
"!l~Rw<3wiNv0jjlmv~bBz.j0Q>8Rbw,lz0q90n:vb,fkN !2lb9qmvzQqj6i7:<q",
"l9/YQ-<<I~v>~8b79b,5n@ Nz:q~z5mQ:,lN0q 0q50Q0lNMj,3qQjqBw,,Ij:<9",
"0q;l^l.:QN00-F9l99::bj#lljlN!qBz::lljnia6q3b70l:N: <L<<nqw:M~ >6",
"3k5!)b07QQq:-Q,v0m< jjjN^mBQbwj6eOl>N,5l0B 7:Oflqll,0:7ll73tm,0v",
"jn:l/bl0lBn: N< vQl:l dNmvvlnnv<:ONnvv5Ob~::73fj9:::7 :87G 0bnzz",
"Nj75_N9 9alQev7 vBNlfqNjN68b0Qb lenBlNNImNly,>>8Nf P>83,-@Il0n,m",
"bq,mnN9q.j!3O9:0qlBNO,v9!,;!jBqyjeNll~9azv!I:qp$Qv W<zz ,4v9 q<B",
"k::lbw>N@/n:><qw<90l&lvNQnNwvmlaLn7!Q9F6Q0QjO7GZlvOIkxjvq09l<Ni(",
"Y0>6l7QNC!/ .q<,f7j9#qw~nj5NklzxI9:{~vQ-~<wjIl:b`qGN.r7nm#,N:vP~",
"J~b5q7Nj>bvb8v3 Emkq<:6NqN6l/1Qkb::b9ln:b,zq!!:b{5NN]q6l<3:Q:6`m"
};
